<?xml version="1.0" encoding="UTF-8"?>
<svg width="80px" height="80px" viewBox="0 0 80 80" version="1.1" xmlns="http://www.w3.org/2000/svg" xmlns:xlink="http://www.w3.org/1999/xlink">
    <!-- Generator: Sketch 49.2 (51160) - http://www.bohemiancoding.com/sketch -->
    <title>sad2</title>
    <desc>Created with Sketch.</desc>
    <defs>
        <linearGradient x1="33.2617243%" y1="19.0398532%" x2="77.5658993%" y2="86.8221975%" id="linearGradient-1">
            <stop stop-color="#FFD971" offset="0%"></stop>
            <stop stop-color="#F6BE71" offset="100%"></stop>
        </linearGradient>
    </defs>
    <g id="Page-1" stroke="none" stroke-width="1" fill="none" fill-rule="evenodd">
        <g id="sad2">
            <circle id="BG-Copy-2" fill="url(#linearGradient-1)" cx="40" cy="40" r="40"></circle>
            <path d="M29.727139,55.6134746 C33.4245139,53.1469735 36.4622787,51 40.0149783,51 C43.5676779,51 46.6054428,53.1469735 50.3028176,55.6134746 C50.3028176,55.6134746 50.3028176,55.6134746 50.3028176,55.6134746 L50.3028176,55.6134746 C51.0405585,56.105618 51.2396545,57.1026361 50.7475112,57.8403769 C50.2553678,58.5781178 49.2583497,58.7772138 48.5206088,58.2850705 C48.4831493,58.2600814 48.4467576,58.2335277 48.41153,58.2054798 C44.8954698,55.4060101 42.0972577,54.0062777 40.0168975,54.0062777 C37.9140721,54.0062777 35.1536032,55.4364038 31.7354907,58.2966561 L31.7354819,58.2966456 C31.0246543,58.891461 29.9662216,58.7974146 29.3714061,58.0865871 C28.7765907,57.3757595 28.8706371,56.3173268 29.5814646,55.7225113 C29.6280152,55.6835581 29.6766448,55.647159 29.727139,55.6134746 C29.727139,55.6134746 29.727139,55.6134746 29.727139,55.6134746 Z" id="Rectangle-8-Copy-4" fill="#2D2D2D"></path>
            <ellipse id="Oval-4-Copy-2" fill="#2D2D2D" cx="23.5" cy="37.5" rx="4.5" ry="5.5"></ellipse>
            <ellipse id="Oval-4-Copy-3" fill="#2D2D2D" cx="56.5" cy="37.5" rx="4.5" ry="5.5"></ellipse>
            <path d="M59.133506,28.2196931 C64.2606671,30.3428139 64.4490197,31.690313 65.5004973,29.994091 C66.3162017,28.6782137 62.4663733,26.6562949 59.3415213,25.78514 C55.5143796,24.7181989 51.3311132,25.0803218 51.4531565,26.4752825 C51.7065722,29.3718376 54.006345,26.0965723 59.133506,28.2196931 Z" id="Oval-14-Copy-10" fill="#2D2D2D" transform="translate(58.530956, 27.963591) scale(-1, 1) rotate(-225.000000) translate(-58.530956, -27.963591) "></path>
            <path d="M21.133506,29.2196931 C26.2606671,31.3428139 26.4490197,32.690313 27.5004973,30.994091 C28.3162017,29.6782137 24.4663733,27.6562949 21.3415213,26.78514 C17.5143796,25.7181989 13.3311132,26.0803218 13.4531565,27.4752825 C13.7065722,30.3718376 16.006345,27.0965723 21.133506,29.2196931 Z" id="Oval-14-Copy-13" fill="#2D2D2D" transform="translate(20.530956, 28.963591) rotate(-225.000000) translate(-20.530956, -28.963591) "></path>
        </g>
    </g>
</svg>