<?xml version="1.0" encoding="UTF-8"?>
<svg width="18px" height="18px" viewBox="0 0 18 18" version="1.1" xmlns="http://www.w3.org/2000/svg" xmlns:xlink="http://www.w3.org/1999/xlink">
    <!-- Generator: Sketch 46.2 (44496) - http://www.bohemiancoding.com/sketch -->
    <title>Icon</title>
    <desc>Created with Sketch.</desc>
    <defs></defs>
    <g id="Symbols" stroke="none" stroke-width="1" fill="none" fill-rule="evenodd">
        <g id="Icons-Dark-/-Search-Icon" fill="#C8C8C8">
            <path d="M17.850279,16.3942968 L13.1929383,11.7024992 C13.0180824,11.5266147 13.0005968,11.2555879 13.135853,11.0478178 C15.0453832,8.11898004 14.6000148,4.09112094 11.7827762,1.68530826 C9.07199414,-0.628962163 4.94590711,-0.549762687 2.31946732,1.86119281 C-0.695255617,4.62854596 -0.7713694,9.3388577 2.09215454,12.2044388 C4.53396698,14.6483083 8.31342772,14.9450492 11.0890094,13.1090614 C11.2972937,12.9712337 11.5703776,12.9892336 11.7462622,13.1661467 L16.3933172,17.8481729 C16.5944016,18.0502859 16.9204566,18.0508001 17.1220552,17.8492015 L17.8492504,17.121492 C18.0498205,16.9209219 18.0503348,16.5958955 17.850279,16.3942968 L17.850279,16.3942968 Z M3.54654493,10.7485055 C1.55935806,8.75977581 1.55935806,5.52391147 3.54654493,3.53518175 C5.5337318,1.54645204 8.76702473,1.54593775 10.7542116,3.53518175 C12.7413985,5.52391147 12.7413985,8.75977581 10.7542116,10.7485055 C8.76702473,12.7372352 5.5337318,12.7372352 3.54654493,10.7485055 L3.54654493,10.7485055 Z" id="Icon"></path>
        </g>
    </g>
</svg>