<svg xmlns:svg="http://www.w3.org/2000/svg" xmlns="http://www.w3.org/2000/svg" version="1.1" x="0px" y="0px" viewBox="0 0 100 125"><g transform="translate(0,-952.36218)"><path style="text-indent:0;text-transform:none;direction:ltr;block-progression:tb;baseline-shift:baseline;color:#818488;enable-background:accumulate;" d="M 73.6875 20 A 3.0040663 3.0040663 0 1 0 74 26 L 84.75 26 L 56 54.75 L 44.375 43.09375 A 3.0003 3.0003 0 0 0 41.71875 41.96875 A 3.0003 3.0003 0 0 0 39.9375 42.8125 L 5.9375 74.8125 A 3.0003 3.0003 0 1 0 10.0625 79.15625 L 41.9375 49.15625 L 53.125 60.34375 A 3.0003 3.0003 0 0 0 58.125 61.09375 L 89 30.21875 L 89 41 A 3.0003 3.0003 0 1 0 95 41 L 95 23 A 3.0003 3.0003 0 0 0 92 20 L 74 20 A 3.0003 3.0003 0 0 0 73.6875 20 z " transform="translate(0,952.36218)" fill="#818488" fill-opacity="1" stroke="none" marker="none" visibility="visible" display="inline" overflow="visible"/></g></svg>