<?xml version="1.0" encoding="UTF-8"?>
<svg width="38px" height="42px" viewBox="0 0 38 42" version="1.1" xmlns="http://www.w3.org/2000/svg" xmlns:xlink="http://www.w3.org/1999/xlink">
    <!-- Generator: Sketch 46.2 (44496) - http://www.bohemiancoding.com/sketch -->
    <title>vuukle-logo</title>
    <desc>Created with Sketch.</desc>
    <defs>
        <linearGradient x1="52.3756257%" y1="15.097%" x2="48.9523714%" y2="92.173%" id="linearGradient-1">
            <stop stop-color="#F6AF41" offset="0%"></stop>
            <stop stop-color="#E6803B" offset="100%"></stop>
        </linearGradient>
        <linearGradient x1="6.473%" y1="49.995%" x2="97.182%" y2="49.995%" id="linearGradient-2">
            <stop stop-color="#DAD7D3" offset="0%"></stop>
            <stop stop-color="#495457" offset="25%"></stop>
            <stop stop-color="#DEDEDD" offset="50%"></stop>
            <stop stop-color="#8E949A" offset="75%"></stop>
            <stop stop-color="#F1F0F1" offset="100%"></stop>
        </linearGradient>
    </defs>
    <g id="Access-Pages" stroke="none" stroke-width="1" fill="none" fill-rule="evenodd">
        <g id="Sign-In" transform="translate(-700.000000, -120.000000)" fill-rule="nonzero">
            <g id="vuukle-logo" transform="translate(700.000000, 120.000000)">
                <g id="Group">
                    <g id="Shape" fill="#F47524">
                        <path d="M37.4273684,19.8378947 L28.3157895,1.49473684 C28.3157895,1.49473684 27.4,0.189473684 25.9473684,0.791578947 C24.4947368,1.39578947 1.21684211,12.1284211 1.21684211,12.1284211 C1.21684211,12.1284211 0.301052632,12.6926316 0.783157895,13.9642105 C1.26526316,15.2357895 2.27789474,17.7326316 2.27789474,17.7326316 C2.27789474,17.7326316 2.90947368,19.3810526 3.43578947,19.8505263 C3.43578947,19.8505263 11.4884211,24.2715789 20.2631579,24.1305263 C20.2631579,24.1305263 27.3515789,24.5494737 36.56,21.5915789 C36.56,21.5789474 38.0063158,21.0021053 37.4273684,19.8378947 L37.4273684,19.8378947 Z"></path>
                        <path d="M21.1957895,24.56 C20.6589474,24.56 20.3326316,24.5452632 20.2547368,24.5389474 C11.4694737,24.6652632 3.30315789,20.2505263 3.22315789,20.2063158 L3.14315789,20.1494737 C2.55157895,19.6252632 1.93684211,18.0547368 1.87157895,17.8694737 C1.87157895,17.8526316 0.854736842,15.3642105 0.376842105,14.0989474 C-0.105263158,12.8315789 0.564210526,12.0168421 0.985263158,11.7621053 L1.03157895,11.7347368 C1.97894737,11.2968421 24.3410526,1.00421053 25.7789474,0.395789474 C27.1810526,-0.197894737 28.2926316,0.694736842 28.6736842,1.25263158 L28.7052632,1.30526316 L37.8168421,19.6442105 C38.0210526,20.0210526 38.0526316,20.4652632 37.9010526,20.8652632 C37.6189474,21.5894737 36.8147368,21.9263158 36.7221053,21.96 L36.6947368,21.96 C29.4610526,24.3073684 23.4547368,24.56 21.1957895,24.56 Z M20.2694737,23.6947368 L20.2905263,23.6947368 C20.3642105,23.6947368 27.4042105,24.0736842 36.4105263,21.1810526 C36.7034794,21.0616336 36.9460068,20.8444005 37.0968421,20.5663158 C37.1592148,20.3843676 37.1384278,20.1841971 37.04,20.0189474 L27.9431579,1.71157895 C27.8147368,1.54315789 27.1473684,0.747368421 26.1263158,1.17684211 C24.7263158,1.76842105 2.41684211,12.0357895 1.43578947,12.4884211 C1.33052632,12.5642105 0.867368421,12.96 1.19157895,13.8084211 C1.66736842,15.0652632 2.67368421,17.5368421 2.68421053,17.5621053 C2.90736842,18.1515789 3.36842105,19.1621053 3.69684211,19.4926316 C4.36842105,19.8484211 12.0505263,23.8294737 20.2589474,23.6821053 L20.2715789,23.6947368 L20.2694737,23.6947368 L20.2694737,23.6947368 Z"></path>
                    </g>
                    <path d="M37.4273684,19.8378947 L28.3157895,1.49473684 C28.3157895,1.49473684 27.4,0.189473684 25.9473684,0.791578947 C24.4947368,1.39578947 1.21684211,12.1284211 1.21684211,12.1284211 C1.21684211,12.1284211 0.301052632,12.6926316 0.783157895,13.9642105 C1.26526316,15.2357895 2.27789474,17.7326316 2.27789474,17.7326316 C2.27789474,17.7326316 2.90947368,19.3810526 3.43578947,19.8505263 C3.43578947,19.8505263 11.4884211,24.2715789 20.2631579,24.1305263 C20.2631579,24.1305263 27.3515789,24.5494737 36.56,21.5915789 C36.56,21.5789474 38.0063158,21.0021053 37.4273684,19.8378947 Z" id="Shape" fill="url(#linearGradient-1)"></path>
                    <path d="M36.6105263,30.6105263 C36.4,30.6315789 15.7978947,32.6336842 4.12210526,21.6547368 L3.08842105,20.68 L6.72210526,36.7010526 C6.81052632,37.2210526 7.08842105,37.6905263 7.50315789,38.0147368 C8.00631579,38.36 8.62736842,38.4842105 9.22526316,38.3621053 C9.68842105,38.32 10.1515789,38.2568421 10.6105263,38.1684211 C11.2378947,38.0463158 18.0968421,36.5347368 20.0210526,36.1115789 C20.0210526,36.9115789 19.7642105,38.7642105 17.7157895,41.0526316 L16.8421053,42.0273684 L18.1368421,41.7431579 C18.4210526,41.68 25.0357895,40.1705263 26.6757895,34.8884211 L34.8863158,33.6589474 L34.9515789,33.6442105 C35.0315789,33.6189474 36.9178947,33.0168421 37.0863158,31.0652632 L37.1284211,30.5536842 L36.6084211,30.6084211 L36.6105263,30.6105263 L36.6105263,30.6105263 Z" id="Shape" fill="url(#linearGradient-2)"></path>
                    <path d="M3.82105263,21.9578947 L7.14736842,36.6231579 C7.14736842,36.6231579 7.34105263,38.2231579 9.17263158,37.9410526 C9.62546149,37.9015498 10.0759057,37.8383049 10.5221053,37.7515789 C11.2442105,37.6126316 20.4084211,35.5873684 20.4084211,35.5873684 C20.4084211,35.5873684 20.9852632,38.0336842 18.0442105,41.3263158 C18.0442105,41.3263158 24.8926316,39.8210526 26.3389474,34.5073684 L34.8231579,33.2378947 C34.8231579,33.2378947 36.5115789,32.72 36.6547368,31.0273684 C36.6547368,31.0294737 15.7789474,33.2042105 3.82105263,21.96 L3.82105263,21.9578947 L3.82105263,21.9578947 Z" id="Shape" fill="#0A0808"></path>
                </g>
            </g>
        </g>
    </g>
</svg>